<svg xmlns="http://www.w3.org/2000/svg" viewBox="0 0 699.57 684.99"><defs><style>.cls-1{fill:#ab2430;fill-rule:evenodd;}.cls-2{fill:none;stroke:#ab2430;stroke-width:10px;}</style></defs><title>Asset 1cinemasouq</title><g id="Layer_2" data-name="Layer 2"><g id="Layer_1-2" data-name="Layer 1"><g id="amc_cinema_souq" data-name="amc cinema souq"><path id="Fill-139" class="cls-1" d="M374,145.65c13.74-11.64,28.15-11.4,40.4-5.36,11.4,6,15.48,14.65,15.66,27.26V198.5s-.11,8.74-9.06,8.74c-8.51,0-8.91-8.68-8.91-8.68L412,168s-.52-14.21-14.73-14.21-15.41,14.13-15.41,14.13V198s0,9.12-9,9.12c-8.83,0-9-9.12-9-9.12V168s-.27-14.22-15.37-14.22-14.63,14.43-14.63,14.43v30.87s-1.05,8.12-9,8.12c-8.22,0-9.05-8.19-9.05-8.19l0-31.15c0-11.49,2.21-22.89,18.56-29.34,7.42-2.93,16.13-2.87,23.94-1.09a43.48,43.48,0,0,1,14.09,8.23l.83.72Z"/><path id="Fill-141" class="cls-1" d="M286.85,198.32c0-9-8.87-9-8.87-9H246c-1.9,0-2.12-1.44-1.66-3.14,3.91-9.7,12.57-20.57,21.84-25.32,7.67-3.92,16.46-8,25.58-7.4,1.9.16,1.9,1,1.91,4v40.38s.46,9.17,9.34,9.17c9.14,0,8.41-8.87,8.41-8.87l0-50.7a12.62,12.62,0,0,0-2.27-8.41,10.5,10.5,0,0,0-5.28-2.84,86.13,86.13,0,0,0-31.37,3c-18.59,5.41-36.35,20.51-45.47,38.48-3.1,6.12-6,14.15-6.09,21.55.11,3.55,1.59,7.69,5.65,7.69l51.59.27s8.73.33,8.73-8.92"/><path id="Fill-143" class="cls-1" d="M500.21,176.34c9,.94,7.91,9.41,7.91,9.41-4.88,15.33-19.24,24.71-36.19,24.71a38,38,0,0,1,0-75.93c17,0,31.43,8.3,36.25,23.74,0,0,2.29,9.29-7.7,10.45-7.39,0-8.53-6-8.53-6-2.86-8.28-10.73-11.33-20-11.33a21.14,21.14,0,0,0,0,42.27c9.14,0,16.92-4.06,19.87-12.19,0,0,1.81-5.25,8.37-5.1"/><path id="Stroke-145" class="cls-2" d="M257.5,664.87c178,55,367-44.75,422-222.8S634.7,75.12,456.66,20.12,89.7,64.87,34.71,242.91"/><path id="Fill-147" class="cls-1" d="M94,360.73c6.25,16.75-9.75,35.5-20.25,43C56,416.48,35,416.23,21.52,409c-11.25-6-21-21.5-21.5-42-1-53,43.5-98.25,71.5-109,13.5-5.25,25.75-6.25,33.75.75,5.5,4.75,11.25,12,13.25,18.25,2.25,7.25,1.5,14.25-2.25,22s-7.25,17.5-10,24.75c-.75,2-2.5,3.5-5.5,1.5-5.75-3.75-9.75-11.5-6-24,4-13.25,13-27.5,7.25-33.5-7-7.5-45,12.75-67.5,50-22,36.5-19.5,73.5-7.25,83.5,16,13,42.5-3.75,61.5-41,1.25-2.75,4-2.75,5.25.5"/><path id="Fill-149" class="cls-1" d="M161,313.73c-3.25,3.5-10.25,2.75-14-3.75-4-6.75-2.75-14.25,1.25-18.5s11.25-1.25,14.5,5.5c3.25,6.5,1.5,13.25-1.75,16.75M105.27,379c6.25-18.25,22.75-47.75,32-60.75,2.25-3,4-3.75,6-1.5,3.75,4,5.75,14.75-.25,27.25-5.25,11-15.75,28-21,40.5-6,14.5-5.5,24.25,2.5,23.75,11.25-.5,25-17,32.5-34.25,1.25-2.25,3-2,4,0,2,4,1.25,9.25-1.75,15.5-7.5,15.5-23.25,26-37.25,26-19,0-23.75-16-16.75-36.5"/><path id="Fill-151" class="cls-1" d="M231.51,313.73c8.25,1.25,16,13.5,9.75,26.5-5.25,11-17.5,29.5-23.25,42.5-6.5,14.5-5,26.25,4,25.75,10.25-.5,22.5-17,32-34.5,1.25-2.25,3-2.25,4.25-.25,1.75,2.75,1.25,8.5-2.25,15.75-6.75,14-22.5,26.75-37,26.75-21.25,0-26.25-15.5-19-37.25,8.25-24.5,30.25-51,25.75-53-2.5-1-17,6-33,23.5-14.75,16-25.75,40-36.5,63.5-1,2.25-2.5,3.25-4.75,1-5-5-6.5-13.25-2.5-25.75,5-15.75,24.25-50.5,40-73.75,1.75-2.75,3.75-2.5,5.25,0,3.75,6.25,3.5,14.75.75,23.75,11.25-12,28.25-25.75,36.5-24.5"/><path id="Fill-153" class="cls-1" d="M306,351c8-10.5,13.5-23.5,10-26.25-5.25-4.25-26,10.75-37.75,34.5-.75,1.5-1.5,3-2,4.25,12.25,7.75,22.5-3,29.75-12.5m-20.75,57.5c20.75,1,39-19,49.75-35.5,1.25-2,3.25-2,4.25.25,1,2,.25,9-4.25,15.5-10.5,15.25-29.75,26.75-49,27-31.75.5-42.75-30.75-26.5-63s41.75-45.25,54.25-38c6.25,3.75,10.75,7.5,14.75,13,4.5,6,2.5,21.25-8,34-12.25,15-29,21.5-46.5,7.25-8,23-2,38.75,11.25,39.5"/><path id="Fill-155" class="cls-1" d="M409.26,313.48c8.5.25,13,13.5,9.75,24.5,12-11.75,28.75-23.5,37-23.25,9,.25,11,15,6,27.5-4.5,11.25-16.75,27.75-23,40.25-7,14.25-3.5,25.75,5.5,25.5,10.25-.25,21.5-16.75,31.25-34.25,1.25-2.25,3.25-2.25,4.5-.5s.5,10-2.25,15.75c-7,14.25-23,26.75-37.5,26.75-21.75,0-29.75-17.25-20.5-37.75,9.25-20.75,31.5-48.75,27.75-50-2-.75-10.5,2-26.75,18.25C400.26,367,388,391,377.51,414.48c-1.5,3-3.5,3.75-5.75,1.25-4.25-3.75-7.75-13.5-.5-31.5,8.25-20.75,35.25-55.25,30.25-57-3-1.25-15.25,5.5-31.25,23-14.75,16-26.75,39.25-36.75,62.75-1,2.25-2.5,3.25-4.75,1.25-5.5-4.75-6.75-13-2.5-25.75,5.25-15.75,23.5-51,39.25-74.5,1.75-2.75,3.75-2.5,5.25,0,4.25,7,3.5,16.75-.25,26.75,11-12.75,29.75-27.5,38.75-27.25"/><path id="Fill-157" class="cls-1" d="M542.25,325.48c-8-.75-26.25,15.5-40,37.75-13.25,21.5-16.5,43.5-6.75,43.75,10.25.25,23.25-15.75,36-37.75,15.75-27.5,18-43,10.75-43.75m20-10.25q3.38-4.87,6-1.5C572,318.23,574,329,568,341.48c-5.5,11.25-18,30-24,43.25-6.25,14-6.5,24.75,2,24.25,10.25-.5,24-17.5,32.75-34.75,1.25-2.25,3-2.5,4-.25s1,8.5-2.25,15.5c-6.5,13.75-22.25,27.5-36,26.75-13.5-.75-20.5-8.75-20.5-20.5-8,10.25-19.25,19.5-31.25,19.5-23.25,0-28-31.75-7.25-62,20.25-29.5,40-40.75,52.5-40.75,10.75,0,15.75,8.25,15.25,18,3.25-6,6.25-11.25,9-15.25"/><path id="Fill-159" class="cls-1" d="M105.89,563.48c10,8,27,21,43.25,21,7,0,12.25-1.75,15.5-4.5,4.25-4.75,3-10-.5-13-13.25-11.25-52.75-26.75-52.75-52.5,0-34.25,38.75-63.5,61-73,12-5,24-7,32.25.5a45,45,0,0,1,12.5,21c2.5,10-3.5,19.75-7.25,25-6.5,8.75-13.75,21.5-17.25,27.75-1.25,2.25-2.75,3.5-5.5.75-4.75-4.75-7.75-12.5-2.5-24.25,5.25-12,24-32.75,18-39-8.5-8.75-70,29.5-71.25,60.75-.75,16.25,31.25,29.5,45.25,39.5,9.5,6.75,8.25,18.25-2.75,31-15,17.25-58.5,22-93.75-20.5-2.75-3.25-1.75-5,.5-5.75,8.25-2.5,18.5-.25,25.25,5.25"/><path id="Fill-161" class="cls-1" d="M253.14,513c-.75,6.75,1.25,13,5.75,17a47.88,47.88,0,0,0,1.75-17.75c-1-8-6.75-6.25-7.5.75m-12.25-.5a91,91,0,0,0-19.5,23.75c-10.5,18.75-14,41.5-7.5,47.25s22-3.25,34.5-26a133.9,133.9,0,0,0,8.75-20.25c-8.5-4.75-16.25-14.5-16.25-24.75M355.14,596c-16.25,0-22.5-10-20.5-24.5-8.75,11.5-21.5,24.75-35.75,23.5-17.75-1.5-18.25-19.75-12.75-36.25a126.46,126.46,0,0,1,9.5-21.5c-7,3.25-14.75,5.25-22.5,4.5-5.75,21-21,45.75-38.75,51.75-9.25,3-22,2-31.75-11-11-14.75-7.25-36.25,3.75-56.25,9.5-17.25,25-31.25,40-32.25,7.5-.5,11.75,1.75,17,8.5,6,7.5,13,9,11.75,27.5a42.07,42.07,0,0,1-.5,5c14.25-.25,28-12,36.5-25.75,2.5-4,6.5-9.5,9.5-13.75,2-2.75,4.25-2.5,6.25-.25,5.5,8.25,4.25,18.75-4.75,33.5s-14.75,24.75-19.5,36.5c-5,12.25-4.25,21,1.25,21.5,9.75.75,23.75-16.25,37-38,15.5-25.25,22.75-42.5,30.5-53.25,2.25-3.25,4.25-3.75,6.25-1.5,3.75,4.5,5.75,15.25-.25,27.75-5.5,11.25-17.75,29.5-23.5,42.5-6.5,14.5-5.5,24.75,3.5,24.25,10.25-.5,23.25-17,32.75-34.5,1.25-2.25,3.25-2.5,4.5-.25s1.25,8.75-2.25,15.5c-7.25,14.25-22.5,26.75-37.25,26.75"/><path id="Fill-163" class="cls-1" d="M453.64,506c-8-.5-26.25,15.5-40,37.5-13.5,21.5-16.5,44.25-6.75,44.25,10.25,0,23.25-15.75,36-38,15.75-27.5,18-43.25,10.75-43.75m-49.5,89.5c-23.25,0-28-31.5-7.25-62,19.75-28.75,40-40.25,52.5-40.25,11,0,16,8.75,15.25,18,4.25-7.5,8.5-13.75,10.75-16,2.75-2.75,4.25-2,6.25.75,3,6.25,2.75,17.25-5.5,32-15.25,27.25-45,78.75-64.75,126-1.25,2.75-2.75,3-4.5,1-3.5-4-6.5-8.75-2.25-23,3-10.5,9.5-26.5,17.5-42.75-5.5,3.75-11.75,6.25-18,6.25"/></g></g></g></svg>