<svg xmlns="http://www.w3.org/2000/svg" viewBox="0 0 704.34 684.99"><defs><style>.cls-1{fill:#ab2430;fill-rule:evenodd;}.cls-2{fill:none;stroke:#ab2430;stroke-width:10px;}</style></defs><title>Asset 1st</title><g id="Layer_2" data-name="Layer 2"><g id="Layer_1-2" data-name="Layer 1"><g id="amc_sweets_treats" data-name="amc_sweets+treats"><path id="Fill-106" class="cls-1" d="M378.79,145.65c13.74-11.64,28.15-11.4,40.41-5.36,11.39,6,15.48,14.65,15.66,27.26V198.5s-.11,8.74-9.07,8.74c-8.5,0-8.91-8.68-8.91-8.68L416.75,168s-.51-14.21-14.72-14.21-15.41,14.13-15.41,14.13V198s0,9.12-9.05,9.12c-8.83,0-9-9.12-9-9.12V168s-.27-14.22-15.36-14.22-14.64,14.43-14.64,14.43v30.87s-1.05,8.12-9,8.12c-8.21,0-9-8.19-9-8.19l-.06-31.15c0-11.49,2.22-22.89,18.56-29.34,7.43-2.93,16.13-2.87,23.95-1.09a43.69,43.69,0,0,1,14.09,8.23l.83.72Z"/><path id="Fill-108" class="cls-1" d="M291.62,198.32c0-9-8.88-9-8.88-9h-32c-1.89,0-2.11-1.44-1.66-3.14,3.91-9.7,12.58-20.57,21.85-25.32,7.67-3.92,16.46-8,25.57-7.4,1.91.16,1.91,1,1.91,4v40.38s.46,9.17,9.34,9.17c9.14,0,8.42-8.87,8.42-8.87l0-50.7a12.57,12.57,0,0,0-2.28-8.41,10.47,10.47,0,0,0-5.27-2.84,86.13,86.13,0,0,0-31.37,3c-18.59,5.41-36.35,20.51-45.47,38.48-3.1,6.12-6,14.15-6.1,21.55.12,3.55,1.6,7.69,5.65,7.69l51.6.27s8.73.33,8.73-8.92"/><path id="Fill-110" class="cls-1" d="M505,176.34c9,.94,7.9,9.41,7.9,9.41-4.87,15.33-19.24,24.71-36.18,24.71a38,38,0,0,1,0-75.93c17,0,31.43,8.3,36.24,23.74,0,0,2.3,9.29-7.69,10.45-7.4,0-8.54-6-8.54-6-2.86-8.28-10.72-11.33-20-11.33a21.14,21.14,0,0,0,0,42.27c9.15,0,16.93-4.06,19.87-12.19,0,0,1.82-5.25,8.38-5.1"/><path id="Stroke-112" class="cls-2" d="M262.27,664.87c178,55,367-44.75,422-222.8S639.47,75.12,461.43,20.12s-367,44.75-422,222.79"/><path id="Fill-114" class="cls-1" d="M27.42,376.41c10,8,27,21,43.25,21,7,0,12.25-1.75,15.5-4.5,4.25-4.75,3-10-.5-13-13.25-11.25-52.75-26.75-52.75-52.5,0-34.25,38.75-63.5,61-73,12-5,24-7,32.25.5a45,45,0,0,1,12.5,21c2.5,10-3.5,19.75-7.25,25-6.5,8.75-13.75,21.5-17.25,27.75-1.25,2.25-2.75,3.5-5.5.75-4.75-4.75-7.75-12.5-2.5-24.25,5.25-12,24-32.75,18-39-8.5-8.75-70,29.5-71.25,60.75-.75,16.25,31.25,29.5,45.25,39.5,9.5,6.75,8.25,18.25-2.75,31-15,17.25-58.5,22-93.75-20.5-2.75-3.25-1.75-5,.5-5.75,8.25-2.5,18.5-.25,25.25,5.25"/><path id="Fill-116" class="cls-1" d="M247.67,305.41c3.25-.5,4.75,3.25,3.75,8.5-2,10-6.25,21.25-21.75,47.5-17,28.5-34.75,47.75-51.5,47.25-10.75-.25-16.75-10-16-20.75-8,10.25-18.5,20.25-30.5,19.5-15.5-1-18.25-17.25-11.75-35.75,5.75-16.5,18-41,34.75-63.75,2-2.75,4.5-2.5,6-.25,6,8.25,4.75,19-4.5,33.75-9,14.25-15.5,26-20.5,38-5,12.25-4.75,21,1,20.75,10-.25,19.25-17,32.75-38.75,16-25.5,23.25-42.75,31.5-53.5,2.5-3.25,4-3.75,6.25-1.5,3.5,4.5,5.5,15.5-.5,28-5.5,11.25-18,30.25-24.25,43.5-6.75,14.25-6,22.75,1.25,23,8.75.25,23.75-16.25,37.25-39.75,4.25-38.25,21.5-54.75,26.75-55.75"/><path id="Fill-118" class="cls-1" d="M297.66,343.91c8-10.5,13.5-23.5,10-26.25-5.25-4.25-26,10.75-37.75,34.5-.75,1.5-1.5,3-2,4.25,12.25,7.75,22.5-3,29.75-12.5m-20.75,57.5c20.75,1,39-19,49.75-35.5,1.25-2,3.25-2,4.25.25,1,2,.25,9-4.25,15.5-10.5,15.25-29.75,26.75-49,27-31.75.5-42.75-30.75-26.5-63s41.75-45.25,54.25-38c6.25,3.75,10.75,7.5,14.75,13,4.5,6,2.5,21.25-8,34-12.25,15-29,21.5-46.5,7.25-8,23-2,38.75,11.25,39.5"/><path id="Fill-120" class="cls-1" d="M377.66,343.91c8-10.5,13.5-23.5,10-26.25-5.25-4.25-26,10.75-37.75,34.5-.75,1.5-1.5,3-2,4.25,12.25,7.75,22.5-3,29.75-12.5m-20.75,57.5c20.75,1,39-19,49.75-35.5,1.25-2,3.25-2,4.25.25,1,2,.25,9-4.25,15.5-10.5,15.25-29.75,26.75-49,27-31.75.5-42.75-30.75-26.5-63s41.75-45.25,54.25-38c6.25,3.75,10.75,7.5,14.75,13,4.5,6,2.5,21.25-8,34-12.25,15-29,21.5-46.5,7.25-8,23-2,38.75,11.25,39.5"/><path id="Fill-122" class="cls-1" d="M417.41,300.91c-2.5-3.5-1-5.25,2.75-5a142.49,142.49,0,0,0,20.75-1c7.75-13.75,14.75-25.5,19-31,2.25-3.25,4.75-3,6,0,2.75,7,2.75,15.25-3.25,28.25,9.75-.25,13.5,4.25,15.5,7.5,1.75,3,.75,4.75-3,4.75-5.5-.75-13.25,0-19.5,1-9.75,16.75-24,41-33.5,62-8.25,18.25-5.5,33.75,5,34.25,11.25.5,25.5-17.25,34.75-36,1.5-3,4.25-3.5,5.25,0,1.25,4,0,8.5-2.5,14.25-3.25,7.25-19.75,29.25-39.75,28.5-16.5-.5-29.75-19-17.75-47.75,5.25-12.5,15.75-33.5,26.5-53.25-8.5,0-14.25-3.75-16.25-6.5"/><path id="Fill-124" class="cls-1" d="M467.91,377.16c3.75,14.5,11,24.75,19.25,22.25,11.5-3.5,7.75-42.75,6.75-62.75-7.25,13.25-16.5,27-26,40.5m26.5-56.5c1.25-9.75,3.75-14.5,9-19.25,5.5-5,11.25-6,13.5-3.75,2.5,2.5,1.25,5.25-2,11-1,1.5-1.75,3-2.75,4.75-1.75,23,3,42.5,2.25,59.75-.5,9.75-2.25,20.25-11.25,26.25,16.75-6.25,27.25-21.25,33.5-34.75,1.25-2.75,3.75-2,4.75,0,1,2.25.75,8.75-3.5,16.5a52.67,52.67,0,0,1-44.25,27.5c-14.5.5-28.5-3.25-37-18.75-6-11.25-5.25-27.75,3.25-34.75,3-2.5,5-1.5,5.25,2.5.25,2,.25,4,.5,6,10.25-14,21.5-30.25,28.75-43"/><path id="Fill-126" class="cls-1" d="M86.92,519.66c.5,2.25.5,3.5-2.75,3.25-9-1-17-.25-24.25.5-5,8.5-10,17.25-13,24.75-.75,3-2.25,3.5-4.5,1.75-3.5-2.75-7.75-9-3-20.75.5-1.25,1-2.75,1.75-4.25h-.5c-11.5-.25-16.75-5.75-18.5-13.25-.5-2.25,0-3.75,3-3.5a164.38,164.38,0,0,0,24.5-.75c4.75-8.5,9.5-17.25,13.5-24.25,1.75-3,3.75-2.5,5.75-.25,4,4.5,5.5,12.5.25,23.25,11.75.25,16.5,6,17.75,13.5"/><path id="Fill-128" class="cls-1" d="M194.92,588.91c-19-.75-26.5-18-20.25-38,5.25-16.75,20.5-35.5,31.25-47.5-11.25,7-22.25,9.5-30.5,9.5-16.5,37.75-42.5,75.5-68.75,75.5-16.75,0-30.25-19-18.25-47.75,5-12.25,15.75-33.5,26.5-52.75-8.25-.25-13.75-3.75-16-7s-1-5.25,2.75-5c8,.5,14.5-.25,20.5-.75,7.75-13.75,14.5-25.5,19-31,2.25-3.5,4.75-3.25,6,0,2.75,6.75,2.5,15.5-3.5,28.75,8,.5,12.75,4.75,15,8.75,1.5,2.75.25,4-3.5,3.75a148.2,148.2,0,0,0-18,.25c-9.75,17-24.25,41-33.75,62-8.5,18.75-5,34,5.25,33.75,15-.5,41.25-31.25,56.75-70-18.75-7.5,5.75-41.25,16-41.75,8.25-.5,5.75,15-1,31.25,8.75-.75,18-5,27.25-11.5,3.25-2.25,5-3,7.25-.5,4.75,5.5,11.25,16.75,3.75,25.25-12,13.5-24.5,30.25-28.75,43.5-4.5,13.75-1.25,23.75,6.25,24,10.25.5,23-15.75,31.25-34.5,1-2,2.75-2.5,3.75,0,1.25,3,1.75,9.25-1.25,16.25-6.25,15-21.25,26-35,25.5"/><path id="Fill-130" class="cls-1" d="M279.41,523.91c8-10.5,13.5-23.5,10-26.25-5.25-4.25-26,10.75-37.75,34.5-.75,1.5-1.5,3-2,4.25,12.25,7.75,22.5-3,29.75-12.5m-20.75,57.5c20.75,1,39-19,49.75-35.5,1.25-2,3.25-2,4.25.25,1,2,.25,9-4.25,15.5-10.5,15.25-29.75,26.75-49,27-31.75.5-42.75-30.75-26.5-63s41.75-45.25,54.25-38c6.25,3.75,10.75,7.5,14.75,13,4.5,6,2.5,21.25-8,34-12.25,15-29,21.5-46.5,7.25-8,23-2,38.75,11.25,39.5"/><path id="Fill-132" class="cls-1" d="M374.41,498.41c-8-.75-26.25,15.5-40,37.75-13.25,21.5-16.5,43.5-6.75,43.75,10.25.25,23.25-15.75,36-37.75,15.75-27.5,18-43,10.75-43.75m20-10.25q3.38-4.87,6-1.5c3.75,4.5,5.75,15.25-.25,27.75-5.5,11.25-18,30-24,43.25-6.25,14-6.5,24.75,2,24.25,10.25-.5,24-17.5,32.75-34.75,1.25-2.25,3-2.5,4-.25s1,8.5-2.25,15.5c-6.5,13.75-22.25,27.5-36,26.75-13.5-.75-20.5-8.75-20.5-20.5-8,10.25-19.25,19.5-31.25,19.5-23.25,0-28-31.75-7.25-62,20.25-29.5,40-40.75,52.5-40.75,10.75,0,15.75,8.25,15.25,18,3.25-6,6.25-11.25,9-15.25"/><path id="Fill-134" class="cls-1" d="M421.16,480.91c-2.5-3.5-1-5.25,2.75-5a142.49,142.49,0,0,0,20.75-1c7.75-13.75,14.75-25.5,19-31,2.25-3.25,4.75-3,6,0,2.75,7,2.75,15.25-3.25,28.25,9.75-.25,13.5,4.25,15.5,7.5,1.75,3,.75,4.75-3,4.75-5.5-.75-13.25,0-19.5,1-9.75,16.75-24,41-33.5,62-8.25,18.25-5.5,33.75,5,34.25,11.25.5,25.5-17.25,34.75-36,1.5-3,4.25-3.5,5.25,0,1.25,4,0,8.5-2.5,14.25-3.25,7.25-19.75,29.25-39.75,28.5-16.5-.5-29.75-19-17.75-47.75,5.25-12.5,15.75-33.5,26.5-53.25-8.5,0-14.25-3.75-16.25-6.5"/><path id="Fill-136" class="cls-1" d="M471.66,557.16c3.75,14.5,11,24.75,19.25,22.25,11.5-3.5,7.75-42.75,6.75-62.75-7.25,13.25-16.5,27-26,40.5m26.5-56.5c1.25-9.75,3.75-14.5,9-19.25,5.5-5,11.25-6,13.5-3.75,2.5,2.5,1.25,5.25-2,11-1,1.5-1.75,3-2.75,4.75-1.75,23,3,42.5,2.25,59.75-.5,9.75-2.25,20.25-11.25,26.25,16.75-6.25,27.25-21.25,33.5-34.75,1.25-2.75,3.75-2,4.75,0,1,2.25.75,8.75-3.5,16.5a52.67,52.67,0,0,1-44.25,27.5c-14.5.5-28.5-3.25-37-18.75-6-11.25-5.25-27.75,3.25-34.75,3-2.5,5-1.5,5.25,2.5.25,2,.25,4,.5,6,10.25-14,21.5-30.25,28.75-43"/></g></g></g></svg>