<svg xmlns="http://www.w3.org/2000/svg" viewBox="0 0 251.42 329.4"><defs><style>.cls-1{fill:#ed174e;}.cls-2{fill:#fff;}</style></defs><title>cookies_logo</title><g id="Layer_2" data-name="Layer 2"><g id="Layer_1-2" data-name="Layer 1"><path class="cls-1" d="M14.11,78.12a31.25,31.25,0,0,1-1.51,4.33C10.91,86,9.13,89.6,7.32,93.13a32,32,0,0,0-3,8.38c-.79,3.89-1.64,7.77-2.66,11.61A55.81,55.81,0,0,0,.71,135.7a10.47,10.47,0,0,0,4.38,7.48c.3.21.55.48.84.69a6.75,6.75,0,0,1,2.91,5.52c.33,4.14.85,8.26,1.39,12.38a30.11,30.11,0,0,0,5,12.78,95.39,95.39,0,0,0,8.57,11.15,154.27,154.27,0,0,0,10.93,11.64c2.14,1.93,4.35,3.79,6.58,5.63,3.76,3.1,7.51,6.22,11.35,9.21,2.65,2,5.45,3.87,8.18,5.8.3.2.62.39.92.57,7,4.34,8.26,4.86,16.49,6.46,6.21,1.2,12.41,2.4,18.64,3.46a156.24,156.24,0,0,1,16.85,4,46.72,46.72,0,0,0,12.81,1.94c3.88,0,7.76.19,11.64.38a54.41,54.41,0,0,0,12.67-.95c3.18-.61,6.42-1,9.65-1.39s6.3-.59,9.44-1a39.8,39.8,0,0,0,15.09-5c5.55-3.19,11.16-6.3,16.78-9.4a46.83,46.83,0,0,0,15.05-13c2.83-3.75,5.88-7.34,8.69-11.09,1.83-2.46,3.37-5.13,5.1-7.66a52.63,52.63,0,0,0,6.85-15.55c1.6-5.64,3.29-11.26,4.74-16.94a61.53,61.53,0,0,0,1.65-25c-.63-4-.49-8.11-.65-12.17-.13-3.34-.36-6.67-.62-10s-.68-6.47-.89-9.71a109,109,0,0,0-5.85-27.78A44.33,44.33,0,0,0,231.36,59a19.53,19.53,0,0,0-6-6.15c-.67-.44-1.36-.89-2.06-1.29a85,85,0,0,1-13.87-10.35,51.22,51.22,0,0,1-3.73-3.92c-1.83-2-3.65-4-5.49-6-1.29-1.39-2.57-2.79-3.92-4.12-2.77-2.71-5.47-5.52-8.42-8C184.1,16,179.64,14.06,175,12.45c-6.29-2.17-12.81-3-19.29-4.2-3.29-.59-6.59-1.13-9.9-1.53a42.36,42.36,0,0,1-11.6-3.6c-2-.85-4-1.7-6-2.52a8.45,8.45,0,0,0-6.1-.06c-1.37.46-2.78.82-4.1,1.4C110.9,5.06,103.76,8.07,97.1,12.17c-5.38,3.32-10.71,6.7-15.92,10.28a26.19,26.19,0,0,1-7.25,3.62A42.94,42.94,0,0,0,65,30a31.17,31.17,0,0,1-7.26,3c-2.25.65-4.47,1.45-6.71,2.12-1.38.42-2.79.72-4.19,1.1a25.06,25.06,0,0,0-3.09.94c-2,.84-3.95,1.77-5.9,2.69a7.85,7.85,0,0,0-1.65.94c-3.86,3.13-7.81,6.15-10.46,10.49a12.45,12.45,0,0,1-2.51,2.82,22.32,22.32,0,0,0-4.46,5.41c-1,1.69-2.25,3.27-3.32,4.94-1.85,2.9-2,3.71-1.8,7.41Z"/><path class="cls-2" d="M38.47,113.62a16.48,16.48,0,0,1-8.15-1.87,13.53,13.53,0,0,1-5.11-5.13,13.91,13.91,0,0,1-1.89-7.08,13.47,13.47,0,0,1,4.32-10.17,15.13,15.13,0,0,1,10.79-4.13c.08,1.46,0,2.73,0,3.77a11,11,0,0,0-7.91,3,10.62,10.62,0,0,0-.05,15A11.07,11.07,0,0,0,38.44,110c0,.73.05,2.38,0,3.65"/><path class="cls-2" d="M89.26,162.1a16.56,16.56,0,0,1-8.13-1.87A13.73,13.73,0,0,1,76,155.09,14,14,0,0,1,74.13,148a13.5,13.5,0,0,1,4.31-10.18,15.15,15.15,0,0,1,10.8-4.13c.08,1.46,0,2.73,0,3.77a11,11,0,0,0-7.9,3,10.57,10.57,0,0,0,0,15,11,11,0,0,0,7.91,2.95c0,.72.06,2.37,0,3.65"/><path class="cls-2" d="M64.57,89a10.77,10.77,0,0,0-7.82,3,10.19,10.19,0,0,0-3.07,7.6A10,10,0,0,0,56.77,107a11.41,11.41,0,0,0,15.42-.06,10.18,10.18,0,0,0,3.1-7.56A9.94,9.94,0,0,0,72.19,92a10.55,10.55,0,0,0-7.62-3m-.16-3.77A14.89,14.89,0,0,1,75.1,89.26a13.51,13.51,0,0,1,4.28,10.19,13.34,13.34,0,0,1-4.32,10.16,15.33,15.33,0,0,1-10.87,4,14.51,14.51,0,0,1-10.44-4,13.43,13.43,0,0,1-4.17-10.07,13.69,13.69,0,0,1,4.21-10.28A14.65,14.65,0,0,1,64.41,85.2"/><path class="cls-2" d="M104.51,89a10.81,10.81,0,0,0-7.83,3,10.2,10.2,0,0,0-3,7.6A10,10,0,0,0,96.7,107a11.41,11.41,0,0,0,15.42-.06,10.11,10.11,0,0,0,3.11-7.56A9.88,9.88,0,0,0,112.12,92a10.51,10.51,0,0,0-7.61-3m-.16-3.77a14.93,14.93,0,0,1,10.7,4.06,13.58,13.58,0,0,1,4.27,10.19A13.33,13.33,0,0,1,115,109.61a15.39,15.39,0,0,1-10.88,4,14.49,14.49,0,0,1-10.44-4,13.46,13.46,0,0,1-4.17-10.07,13.76,13.76,0,0,1,4.2-10.28,14.69,14.69,0,0,1,10.63-4.06"/><polygon class="cls-2" points="146.36 85.59 151.32 85.59 139.3 104.81 148.95 113.31 143.53 113.31 134.7 105.69 134.7 113.31 130.73 113.31 130.73 85.59 134.7 85.59 134.7 104.33 146.36 85.59"/><rect class="cls-2" x="163.86" y="85.59" width="3.97" height="27.71"/><polygon class="cls-2" points="180.48 85.59 196.2 85.59 196.2 89.13 184.45 89.13 184.45 100.48 195.8 100.48 195.8 104.03 184.45 104.03 184.45 109.73 196.57 109.73 196.57 113.26 180.48 113.26 180.48 85.59"/><polygon class="cls-2" points="134.19 134.36 149.91 134.36 149.91 137.89 138.16 137.89 138.16 149.25 149.5 149.25 149.5 152.8 138.16 152.8 138.16 158.5 150.28 158.5 150.28 162.03 134.19 162.03 134.19 134.36"/><path class="cls-2" d="M214.16,101.69l-3-1.83a13.76,13.76,0,0,1-4-3.41,6.41,6.41,0,0,1-1.19-3.86,6.86,6.86,0,0,1,2.26-5.32,8.55,8.55,0,0,1,5.91-2,11.15,11.15,0,0,1,6.36,2v4.5A9.16,9.16,0,0,0,214,88.81a5.35,5.35,0,0,0-3.19.9,2.7,2.7,0,0,0-1.24,2.3,3.52,3.52,0,0,0,.92,2.33,11.42,11.42,0,0,0,3,2.28l3,1.79q5.07,3,5.08,7.72a7.07,7.07,0,0,1-2.24,5.41,8.15,8.15,0,0,1-5.8,2.08A12.15,12.15,0,0,1,206,111.1v-5c2.13,2.71,4.62,4.07,7.43,4.07a4.65,4.65,0,0,0,3.1-1,3.25,3.25,0,0,0,1.25-2.59q0-2.53-3.65-4.81"/><polygon class="cls-2" points="49.41 135.02 53.18 135.02 53.18 162.74 49.77 162.74 31.24 141.4 31.24 162.74 27.52 162.74 27.52 135.02 30.73 135.02 49.41 156.54 49.41 135.02"/><polygon class="cls-2" points="67.47 143.97 65.24 143.97 64.34 138.51 64.34 133.66 68.4 133.66 68.4 138.51 67.47 143.97"/><path class="cls-2" d="M108.44,137.71h-1.19v15h1.5a11,11,0,0,0,4.14-.52,3.72,3.72,0,0,0,1.74-1.56c.42-.68.63-7.7.63-8.59a4.24,4.24,0,0,0-.69-2.37,3.74,3.74,0,0,0-2-1.5,14.12,14.12,0,0,0-4.17-.44m-5.16,24.34V134.34h6.94a10,10,0,0,1,6.68,2.08,7,7,0,0,1,2.47,5.65c0,1.61.14,9.25-.67,10.42a9,9,0,0,1-2.75,2.63l4.71,6.93h-4.73l-3.64-5.85-4,0h-1v5.83Z"/><path class="cls-2" d="M176.7,152.78l-5.49-12.51-5,12.51Zm-6.85-18.6h2.79l12.42,27.87H181l-2.8-5.73H164.45L162,162.05H158Z"/><polygon class="cls-2" points="216.64 134.34 220.34 134.34 220.34 162.05 216.35 162.05 216.35 140.49 207.84 151.2 207.1 151.2 198.49 140.49 198.49 162.05 194.52 162.05 194.52 134.34 198.27 134.34 207.49 145.72 216.64 134.34"/><path class="cls-1" d="M113.82,292.63c.22-.07.36-.07.41-.15a7.25,7.25,0,0,1,.53-.79.62.62,0,0,1,.55-.09c.11,0,.21.3.21.46a2,2,0,0,1-2,1.59c.11-.44.21-.81.28-1m-11.41-.35c0-.19,0-.37-.06-.55l-.13-.09c.32-.47.62-1,1-1.42a.6.6,0,0,1,.53-.12c.16.07.35.36.31.46a10.5,10.5,0,0,1-1,2c-.21.32-.63.27-.68-.28m41.86-3a1.9,1.9,0,0,0,.09-.67c0-.47-.11-.91.61-.84.05,0,.13-.19.23-.36.18,2.1-.38,3.47-1.52,3.69.21-.63.41-1.22.59-1.82m28.62,9.73a6.65,6.65,0,0,0-1.78-.13,10.71,10.71,0,0,1-8.64-3.22c-2.29-2.32-3.29-5.27-4-8.34,0-.05,0-.12.06-.21a3.84,3.84,0,0,1,.48,0,27.93,27.93,0,0,0,7.64,0c1.59-.23,3.17-.54,4.75-.86a3.47,3.47,0,0,0,1-.57c0-.11,0-.21-.05-.32a15.77,15.77,0,0,0-2.39-.6,13.17,13.17,0,0,0-2,.2c-3.15.17-6.28.33-9.44.47-.15,0-.46-.3-.46-.47a14.66,14.66,0,0,1,.07-2.89,8.77,8.77,0,0,0-.65-5.18,4.5,4.5,0,0,0-.36-.53,4.41,4.41,0,0,0-1.55,2.77c-.52,3.11-1,6.23-1.5,9.34-.2,1.18-.46,2.36-.69,3.53-.15,0-.18,0-.19,0a4.47,4.47,0,0,1-.43-.44,2.84,2.84,0,0,0-3.17-1,8.15,8.15,0,0,0-2.07.91c-1.19.78-2.33,1.66-3.49,2.48a7.93,7.93,0,0,1-.86.48l-.11-.14c.16-.18.33-.35.49-.54a16.51,16.51,0,0,0,1.53-1.92,23.56,23.56,0,0,0,1.56-3.29,2.27,2.27,0,0,0-.77-2.54,3.91,3.91,0,0,0-4.89,1.3,22.12,22.12,0,0,0-2.26,7,2.43,2.43,0,0,1-.45,1.2,10.7,10.7,0,0,1-5,3.32,3.07,3.07,0,0,1-3.31-.82,6.71,6.71,0,0,1-1.67-5.9,35,35,0,0,0,.75-5.94v-2.49a3.82,3.82,0,0,1,.6.06,27.41,27.41,0,0,0,7.29.35,14.31,14.31,0,0,0,2.26-.23c.68-.12.73-.38.38-.94a2,2,0,0,0-1.68-.83c-2.11-.15-4.23-.2-6.34-.36a3.36,3.36,0,0,0-2.29.34s-.08,0-.22-.07c-.12-2.51.2-5.12-.75-7.68a4.38,4.38,0,0,0-1.58,2.18,25.17,25.17,0,0,0-1.2,3.72c-.55,3.68-.25,7.39-.16,11.1a2.15,2.15,0,0,1-.33,1.26,14.45,14.45,0,0,1-2.11,2.17,22.26,22.26,0,0,1-5.71,3.2,2.7,2.7,0,0,1-2.48,0,35.58,35.58,0,0,1,2-3.55,6.57,6.57,0,0,0,.26-6.92,1.29,1.29,0,0,0-1.12-.63,2.31,2.31,0,0,0-2.27,1.48c-1.53,2.62-2.79,5.35-2.76,8.49a1.12,1.12,0,0,1-.52.85c-1.41.68-2.83,1.34-4.29,1.88a3.61,3.61,0,0,1-1.82.05,2,2,0,0,1-1.48-1.59c-.19-.63.44-.83.72-1.22a1.8,1.8,0,0,1,.2-.18,12.43,12.43,0,0,0,3.74-5.62,6.68,6.68,0,0,0,0-2.56.81.81,0,0,0-.4-.52c-1.23-.76-3.94-.89-4.94.86-.27.46-.62.89-.93,1.33l.18,0c-.09.63-.17,1.27-.27,1.91a16.44,16.44,0,0,1-2.19,5.55c-.38.67-.69.7-1.23.14-.27-.3-.51-.65-.77-1-.71-.85-1.38-1.73-2.14-2.52s-1.24-.73-1.92.06a7.48,7.48,0,0,0-1,1.54c-.32.67-.53,1.39-.85,2.29-.13-.47-.21-.77-.3-1.06-.59-1.86-1.15-3.73-1.81-5.57-.35-.93-.78-.94-1.48-.25a6.85,6.85,0,0,0-1.61,3.53c-.39,1.73-.65,3.49-1,5.21-.14.74-.35,1.47-.53,2.21h-.22a8,8,0,0,1-.54-1.25c-.48-1.88-1-3.78-1.37-5.69a12.29,12.29,0,0,0-1.63-4.92c-.49-.7-1-.83-1.6-.25a5.93,5.93,0,0,0-1.3,1.58c-1.37,2.72-2.68,5.46-4,8.19-.11.24-.24.46-.4.77-.15-.23-.23-.34-.29-.45a6.31,6.31,0,0,0-5.9-3.63c-1.43,0-2.86,0-4.27-.14s-1.84-.88-1.35-2.2a36.81,36.81,0,0,1,4.63-8.46,4.61,4.61,0,0,0,.84-2.87,6.74,6.74,0,0,1-1.09.59,3.18,3.18,0,0,0-1.79,1.43c-.58.94-1.21,1.86-1.76,2.81-1,1.65-2,3.29-2.79,5A10.84,10.84,0,0,0,58,298.47a2.11,2.11,0,0,0,1.85,2,19.65,19.65,0,0,0,2.88.28c1.07.05,2.16,0,3.24.05a5.44,5.44,0,0,1,4.84,3.36,1.41,1.41,0,0,1,0,1.25c-.79,1.86-1.59,3.72-2.27,5.63a10.84,10.84,0,0,0-.37,2.56.56.56,0,0,0,.76.62,4.16,4.16,0,0,0,1.57-.66,8.52,8.52,0,0,0,3.35-7.49,5.63,5.63,0,0,1,.15-2.5c1.32-3,2.78-5.91,4.2-8.86a10.39,10.39,0,0,1,.52-.94,13.43,13.43,0,0,1,.49,1.39c.17.86.3,1.72.44,2.58a30.2,30.2,0,0,0,1.66,6.82,6.18,6.18,0,0,0,.9,1.61,1.19,1.19,0,0,0,1.06.33,3.53,3.53,0,0,0,2.26-2.18c.48-1.44.87-2.9,1.24-4.38.24-.89.37-1.82.55-2.73a4.63,4.63,0,0,1,.48,1.27q.84,3.11,1.69,6.19c.09.3.14.77.66.58a2.64,2.64,0,0,0,1.93-1.91c.24-1.13.42-2.25.65-3.39.12-.61.27-1.21.41-1.82l.21,0,1.28,1.77c.42.58.8,1.19,1.26,1.73A1.51,1.51,0,0,0,98,302a11.72,11.72,0,0,0,1.62-1.23,3.49,3.49,0,0,0,.4-.63c.29.78.48,1.31.7,1.84a2.89,2.89,0,0,0,3,1.95,10,10,0,0,0,2.84-.5c1.53-.55,3-1.26,4.49-1.94a.68.68,0,0,1,.9.14,2.84,2.84,0,0,0,1.18.78,6.5,6.5,0,0,0,3.88-.13,21.48,21.48,0,0,0,8.39-5.31,5,5,0,0,1,.42-.34c.06.27.1.47.16.66a22.85,22.85,0,0,0,.94,2.79,4.75,4.75,0,0,0,6.06,2.72,14.12,14.12,0,0,0,5.89-3.47,1.08,1.08,0,0,1,.73-.36,5.1,5.1,0,0,0,3.32-.69c1.62-1,3.18-2,4.84-2.94a5.26,5.26,0,0,1,2.39-.71,2.77,2.77,0,0,1,1.64.95c.16.16-.08.85-.28,1.21a18.59,18.59,0,0,0-2.25,6.05,2.5,2.5,0,0,0-.07.81c.09.78.32.93,1,.6a2.3,2.3,0,0,0,.91-.69c1.06-1.42,2.06-2.89,3.12-4.31a3.75,3.75,0,0,0,.63-2.88,2.7,2.7,0,0,1,.06-.94c.31-1.22.65-2.44,1-3.66.07-.3.14-.61.21-.9a.66.66,0,0,1,.27.36c.59,1.54,1.1,3.13,1.78,4.63a12.49,12.49,0,0,0,8,7.06c1.82.54,3.68.67,5.24-.71a14.1,14.1,0,0,0,1.84-2.22.56.56,0,0,0-.36-.95"/><path class="cls-1" d="M213.19,290.37a1.73,1.73,0,0,0,1.14-.44c.58-.65,1-1.42,1.53-2.12a1.27,1.27,0,0,0,.06-1.76c-.31-.4-.57-.41-.91-.17-.56.38-1.07.85-1.65,1.19a2.43,2.43,0,0,0-1.07,2.11c0,.76.28,1.21.9,1.19"/><path class="cls-1" d="M212.29,289.18a2.41,2.41,0,0,1,1.07-2.11c.58-.34,1.09-.81,1.65-1.19.34-.24.6-.23.91.17a1.27,1.27,0,0,1-.06,1.76c-.51.7-1,1.47-1.52,2.12a1.78,1.78,0,0,1-1.15.44c-.62,0-.92-.43-.9-1.19"/><path class="cls-1" d="M48.37,294.64c-.21.32-.63.27-.67-.28,0-.18-.05-.36-.07-.55l-.14-.08c.33-.48.63-1,1-1.43a.6.6,0,0,1,.53-.12c.15.07.35.36.31.47a10.11,10.11,0,0,1-1,2m7.44,13.44a21.38,21.38,0,0,1-4.05-6,2.81,2.81,0,0,1-.17-1.32c.13-2,.42-4,.45-6a10.32,10.32,0,0,0-2-6.37c-1.13-1.53-2.11-1.88-3.57-1-.3.18-.63.3-.93.47A2.87,2.87,0,0,0,44,290.63c.06,1.26.27,2.51.42,3.77,0,.27.08.53.15,1-.35-.22-.58-.32-.77-.46a1.79,1.79,0,0,0-1.81-.22,4.74,4.74,0,0,0-2.86,2.45c-.15.28-.33.55-.5.83a.7.7,0,0,1-.2-.46c0-6.73-.76-13.42-1.33-20.12a6.43,6.43,0,0,1,.27-2.43,18.06,18.06,0,0,0,.87-5.78,6.2,6.2,0,0,0-.82-3.51,2.33,2.33,0,0,0-2.46-1.08l-1,.16c-1,.2-1.32.54-1.32,1.6,0,2.28,0,4.56.12,6.84a5.43,5.43,0,0,1-.78,3.14,35,35,0,0,1-5.82,7.16,5.31,5.31,0,0,1-.57.42c-.15-1.32-.3-2.5-.41-3.68-.27-2.74-.64-5.49-.75-8.24s.09-5.38.16-8.08a8,8,0,0,0-.71-3.25c-.13.09-.21.11-.24.16-.49,1.36-1.49,2.56-1.24,4.14a4.4,4.4,0,0,1,0,.62c-.07,2.89-.29,5.8-.15,8.68.17,3.42.6,6.83,1.07,10.22a2,2,0,0,1-1.08,2.3c-1.52.83-3,1.7-4.59,2.48a1.44,1.44,0,0,1-1.77-.29,2.31,2.31,0,0,0-2.41-.58c-.15.05-.33,0-.47.06a4.58,4.58,0,0,0-.69.37c.13.22.2.51.39.64.75.52,1.52,1,2.31,1.48a7.37,7.37,0,0,0,1.92.87,8.27,8.27,0,0,0,6-1c.31-.16.64-.29,1-.45l.08.37c.25,2,.53,4,.76,6q.48,4,.88,8.09c.23,2.15.4,4.3.62,6.45a2.51,2.51,0,0,0,.26.67,2.71,2.71,0,0,0,.71-.46,3.86,3.86,0,0,0,.89-2.69c-.07-1.26-.11-2.52-.2-3.79-.2-2.52-.39-5.05-.66-7.56s-.64-5.16-1-7.74a1.37,1.37,0,0,1,.59-1.46,34.49,34.49,0,0,0,6.12-5.77,3.26,3.26,0,0,1,.45-.38,4.86,4.86,0,0,1,.1.56,114.14,114.14,0,0,1,.67,14.2c0,2.14,0,4.29,0,6.43a1.5,1.5,0,0,0,.75,1.51,8.85,8.85,0,0,1,2.24,1.76,1.19,1.19,0,0,0,1.76-.28,18.38,18.38,0,0,0,1.32-2.33c.81-1.65,1.55-3.33,2.33-5a2.37,2.37,0,0,1,.38-.44c.22.56.42,1,.61,1.47a5,5,0,0,0,2.28,2.85,7.63,7.63,0,0,1,1.32.72,27,27,0,0,0,2.37,2.07c1.68,1.07,3.47,2,5.22,2.92a1.32,1.32,0,0,0,.68.14,3.1,3.1,0,0,0,.73-.21,3.81,3.81,0,0,0-.32-.36"/><path class="cls-1" d="M233,325.57c2.8-1.66,4.72-6.13,3.49-9.57-.05.05-.13.08-.15.13-1.12,2.76-2.24,5.53-3.33,8.31a3.76,3.76,0,0,0,0,1.13m-44.12-52.81c-1.85,4.89-1.66,9.8-1.73,14.81,1-.27,2-.55,2.9-.75,1.52-.32,3-.81,4.62-.36.54.16,1.27.84,1.19,1.34a1.24,1.24,0,0,1-.75.72c-1.78.53-3.58,1-5.38,1.48-.8.2-1.61.3-2.52.46,0,.15,0,.42,0,.69a42.42,42.42,0,0,0,1,9.86,33.34,33.34,0,0,0,1.67,4.5,2,2,0,0,0,.52.65,1.27,1.27,0,0,0,2.25-.28,34.79,34.79,0,0,0,3.44-8,46.25,46.25,0,0,0,2.12-13.43c0-2.7.37-5.42.58-8.12,0-.64.11-1.29.21-1.92a1.25,1.25,0,0,1,.93-.95,10,10,0,0,0,1.82-1.19,3.89,3.89,0,0,1,.91-.52A241.52,241.52,0,0,0,202,302.2l.17,0c.39-.79.78-1.58,1.15-2.37.26-.57.51-1.14.73-1.72a5.11,5.11,0,0,1,2-2.72,7.84,7.84,0,0,0,1.11-1.12c.64-.63,1.18-.58,1.48.25.67,1.86,1.24,3.76,1.84,5.64.41,1.27.78,2.55,1.21,3.82a6.65,6.65,0,0,0,.66,1.13,3.44,3.44,0,0,0,.32-.53,20.09,20.09,0,0,0,1.14-6.15c0-.38,0-.77,0-1.16a1.61,1.61,0,0,1,1.25-1.61,2.51,2.51,0,0,0,.8-.6c.3-.29.57-.61.85-.92l.19.08c0,.49,0,1,0,1.48.09,1.95.18,3.9.32,5.85a5.62,5.62,0,0,0,.42,1.53c.07.18.29.31.45.47.14-.16.37-.29.42-.47.52-1.77,1.06-3.53,1.47-5.31a2.17,2.17,0,0,1,1.36-1.67,2.11,2.11,0,0,0,.64-.48c.28-.26.53-.55.79-.83a1.81,1.81,0,0,1,.23,0c.09.89.15,1.79.27,2.68.17,1.33.38,2.66.58,4h.29c.09-.4.19-.8.28-1.21.15-.71.29-1.43.46-2.15a2.25,2.25,0,0,1,1.53-1.55,5,5,0,0,0,1-.73c.17-.11.36-.19.53-.28a1.84,1.84,0,0,1,.23.52c.24,1.73.41,3.47.72,5.19a4.74,4.74,0,0,0,.89,2.07c1.19,1.46,2.68,1.21,4,.36.17-.11.22-.47.25-.73.24-1.69.37-3.39.7-5a14.35,14.35,0,0,1,1.09-2.9,2.12,2.12,0,0,1,.84-1.05,6.48,6.48,0,0,0,2.1-1.71c.16-.18.56-.35.71-.27a1,1,0,0,1,.51.73c0,3.46-.3,6.87-2.45,9.8a1.62,1.62,0,0,0-.33,1.47q.74,2.81,1.49,5.59a2.48,2.48,0,0,0,.22.42l.61-.36a3.92,3.92,0,0,1,2.91-.54,4.12,4.12,0,0,0,3.48-.69c.41-.29.81-.6,1.22-.91a3.32,3.32,0,0,0,1.38-2.43,3.92,3.92,0,0,1,.68-1.52c.46-.71,1-1.36,1.54-2,.12-.15.26-.29.45-.49a4.85,4.85,0,0,1,0,3.32,13.49,13.49,0,0,1-5.94,7.53,6,6,0,0,1-3.26,1,11.1,11.1,0,0,1-1.79-.35c-.2,0-.38-.09-.66-.17,0,.55.08,1,.14,1.45.61,5.33-1.3,9.71-5.1,13.33a22.65,22.65,0,0,1-2.53,1.91,1.69,1.69,0,0,1-.7.26c-.79.14-1.24-.15-1.14-.93a15.71,15.71,0,0,1,.76-3.69c1.2-3.16,2.54-6.27,3.83-9.41a2.83,2.83,0,0,1,.34-.75,3,3,0,0,0,.17-3c-.57-1.73-1-3.53-1.44-5.37a5.91,5.91,0,0,1-.57.33,17.06,17.06,0,0,1-3.18,1.25,3.07,3.07,0,0,1-3.8-2.28c-.2-.58-.35-1.18-.54-1.88a7.13,7.13,0,0,1-.85,1.19,7.87,7.87,0,0,1-1.69,1.37,1.19,1.19,0,0,1-1.84-.68,6.44,6.44,0,0,1-.37-1c-.12-.34-.21-.69-.36-1.18-.19.3-.3.52-.44.71A22.43,22.43,0,0,1,218,306.8c-1.53,1.47-2.75,1.12-3.65-1-.18.3-.32.54-.47.77a5.75,5.75,0,0,1-2.13,2.3c-1.33.68-2.36.39-2.91-1s-1-2.87-1.4-4.33c-.36-1.21-.66-2.44-1-3.66-.08-.28-.2-.54-.36-1-.44,1-.81,1.83-1.19,2.66-.77,1.64-1.51,3.31-2.34,4.92a4.24,4.24,0,0,1-2.12,2.27c-.92.37-1.54.11-1.67-.85-.18-1.44-.32-2.88-.43-4.33-.09-1.28-.11-2.57-.32-3.89-.1.26-.22.51-.33.77-1.33,3.27-2.9,6.39-5.66,8.72a5.64,5.64,0,0,1-2.19,1.21,3,3,0,0,1-3.39-1.69,18.56,18.56,0,0,1-2.21-6.42c-1.1-6.14-.92-12.35-.76-18.54a65.31,65.31,0,0,1,1.06-8.41c.24-1.55.66-1.84,2.25-2.11.38-.07.74-.23,1.11-.33s.51-.08,1-.15"/></g></g></svg>